<svg xmlns="http://www.w3.org/2000/svg" width="218.372" height="91.21" viewBox="0 0 218.372 91.21"><title>logo-git</title><path d="M147.061,31.308a13.8,13.8,0,0,1,3.22,8.791c0,9.66-7.571,15.316-18.535,15.316a27.679,27.679,0,0,1-6.876-.782L122,59.245l8.528.521c15.058.959,23.932,1.4,23.932,12.966,0,10.011-8.787,15.665-23.932,15.665-15.751,0-21.757-4-21.757-10.878,0-3.918,1.741-6,4.787-8.878a5.8,5.8,0,0,1-3.829-5.74,7.8,7.8,0,0,1,2.525-5.311c1.567-1.652,3.307-3.308,5.395-5.222-4.263-2.088-7.484-6.614-7.484-13.056,0-10.007,6.615-16.88,19.928-16.88a29.856,29.856,0,0,1,8.009.87h16.972v7.4ZM121.3,71c-1.133,1.391-2.263,2.868-2.263,4.612,0,3.478,4.437,4.525,10.53,4.525,5.048,0,11.924-.353,11.924-5.047,0-2.789-3.308-2.962-7.487-3.224Zm9.572-39.952c-4.788,0-8.354,2.351-8.354,8.009,0,4.263,2.351,7.223,8.1,7.223,4.87,0,8.179-2.87,8.179-7.4C138.793,33.745,135.833,31.045,130.872,31.045Z" fill="#f05033"/><path d="M159.15,67.794V60.922l4.44-.607c1.219-.176,1.392-.436,1.392-1.744V32.984c0-.956-.26-1.567-1.133-1.826l-4.7-1.655.957-7.047h18.017V58.571c0,1.395.085,1.568,1.394,1.744l4.438.607v6.872Zm11.229-52.3c-4.962,0-7.833-2.874-7.833-7.837S165.418,0,170.38,0c5.048,0,7.92,2.7,7.92,7.656S175.428,15.493,170.38,15.493Z" fill="#f05033"/><path d="M218.372,64.42A34.81,34.81,0,0,1,204.184,67.9c-10.356,0-14.271-4.173-14.271-14.012v-22.8c0-.521,0-.871-.7-.871h-6.092V22.471c7.661-.872,10.705-4.7,11.662-14.188h8.27V20.645c0,.607,0,.87.7.87h12.269v8.7H203.054v20.8c0,5.135,1.22,7.135,5.917,7.135a20.718,20.718,0,0,0,7.05-1.391Z" fill="#f05033"/><path d="M89.421,41.582,49.628,1.791a5.869,5.869,0,0,0-8.3,0l-8.263,8.264L43.546,20.536a6.971,6.971,0,0,1,8.827,8.886l10.1,10.1a6.975,6.975,0,1,1-4.183,3.938l-9.421-9.422V58.833a6.971,6.971,0,1,1-5.742-.2V33.607a6.906,6.906,0,0,1-2.287-1.524,6.983,6.983,0,0,1-1.5-7.635L29,14.114,1.719,41.4a5.871,5.871,0,0,0,0,8.3L41.513,89.491a5.87,5.87,0,0,0,8.3,0L89.421,49.885A5.873,5.873,0,0,0,89.421,41.582Z" fill="#f05033"/></svg>